<svg width="14" height="14" viewBox="0 0 14 14" fill="none" xmlns="http://www.w3.org/2000/svg">
<path d="M2.66707 3.43572H4.66707V4.76884H2.66707V3.43572ZM6.00013 4.76884H10.6671V3.43572H6.00013V4.76884ZM2.66707 7.43577H4.66707V6.10265L2.66707 6.10203V7.43577ZM6.00013 7.43577H10.6671V6.10265H6.00013V7.43577ZM2.66707 10.102H4.66707V8.76892H2.66707V10.102ZM6.00013 10.102H10.6671V8.76892H6.00013V10.102ZM13.3339 4.17777V9.37151C13.3339 11.3747 11.8483 13.0778 9.87813 13.3334C8.81439 13.4703 7.73387 13.5396 6.66693 13.5396C5.59505 13.5396 4.5132 13.4703 3.45187 13.3327C1.4844 13.0777 0 11.3741 0 9.36901V4.18021C0 2.19075 1.4712 0.489012 3.42253 0.220879C5.5468 -0.0710011 7.7288 -0.0734944 9.852 0.212754C11.8369 0.480874 13.3339 2.18529 13.3339 4.17769V4.17777ZM12.0001 4.17777C12.0001 2.84965 10.9995 1.71284 9.67387 1.53404C8.68075 1.39967 7.66893 1.33153 6.66693 1.33153C5.64631 1.33153 4.6164 1.40216 3.6044 1.54153C2.31003 1.71965 1.33387 2.85341 1.33387 4.1802V9.36967C1.33387 10.7066 2.31824 11.8415 3.62373 12.0103C5.62867 12.2722 7.68933 12.2722 9.70747 12.011C11.0143 11.8422 12 10.7072 12 9.37229L12.0001 4.17777Z" fill="black"/>
</svg>
