<svg width="14" height="14" viewBox="0 0 14 14" fill="none" xmlns="http://www.w3.org/2000/svg">
<path d="M10.6669 0H2.66693C1.19627 0 0 1.19625 0 2.66693V10.6669C0 12.1376 1.19625 13.3339 2.66693 13.3339H10.6669C12.1376 13.3339 13.3339 12.1376 13.3339 10.6669V2.66693C13.3339 1.19627 12.1376 0 10.6669 0ZM12.0001 10.6669C12.0001 11.4019 11.4019 12.0001 10.6669 12.0001H2.66693C1.93193 12.0001 1.33381 11.4019 1.33381 10.6669V2.66693C1.33381 1.93193 1.93193 1.33381 2.66693 1.33381H10.6669C11.4019 1.33381 12.0001 1.93193 12.0001 2.66693V10.6669ZM3.33379 6.66693H4.66691V9.33387H3.33379V6.66693ZM6.00005 4H7.33317V9.33307H6.00005V4ZM8.66699 5.33373H10.0001V9.33373H8.66699V5.33373Z" fill="black"/>
</svg>
