<svg width="14" height="14" viewBox="0 0 14 14" fill="none" xmlns="http://www.w3.org/2000/svg">
<path d="M6.66693 0C2.9912 0 0 2.9912 0 6.66693C0 10.3427 2.99053 13.3339 6.66693 13.3339C10.3427 13.3339 13.3339 10.3433 13.3339 6.66693C13.3339 2.9912 10.3427 0 6.66693 0ZM6.66693 12C3.72627 12 1.33387 9.60747 1.33387 6.66693C1.33387 3.7264 3.7264 1.33387 6.66693 1.33387C9.60747 1.33387 12 3.7264 12 6.66693C12 9.60747 9.60747 12 6.66693 12ZM7.37319 8.62627C7.56007 8.81315 7.66693 9.06689 7.66693 9.33376C7.66693 9.59376 7.56006 9.85376 7.37319 10.04C7.18693 10.2269 6.93319 10.3338 6.66693 10.3338C6.40005 10.3338 6.14693 10.2269 5.96005 10.04C5.7738 9.85376 5.66693 9.60001 5.66693 9.33376C5.66693 9.06688 5.77381 8.81376 5.96005 8.62688C6.3338 8.25376 7.00693 8.25376 7.37312 8.62626L7.37319 8.62627ZM5.33385 3.33373H8.00079L7.33391 7.33373H6.00079L5.33385 3.33373Z" fill="black"/>
</svg>
