<svg width="14" height="14" viewBox="0 0 14 14" fill="none" xmlns="http://www.w3.org/2000/svg">
<rect x="12.25" y="4.8125" width="2.91667" height="2.91667" rx="1.45833" transform="rotate(90 12.25 4.8125)" fill="#333333" stroke="#333333" stroke-width="0.875"/>
<rect x="12.25" y="10.6458" width="2.91667" height="2.91667" rx="1.45833" transform="rotate(90 12.25 10.6458)" fill="#333333" stroke="#333333" stroke-width="0.875"/>
<rect x="1.3125" y="3.35425" width="2.91667" height="2.91667" rx="1.45833" transform="rotate(-90 1.3125 3.35425)" fill="#333333" stroke="#333333" stroke-width="0.875"/>
<path d="M2.771 4.08325V9.18742C2.771 10.5623 2.771 11.2498 3.19813 11.6769C3.62527 12.1041 4.31273 12.1041 5.68766 12.1041H9.3335" stroke="#333333" stroke-width="0.875"/>
<path d="M2.771 3.35425C2.771 4.72918 2.771 5.41664 3.19813 5.84378M9.3335 6.27091H5.68766C4.31273 6.27091 3.62527 6.27091 3.19813 5.84378M3.19813 5.84378C3.19813 5.84378 3.19813 5.84378 3.19813 5.84378Z" stroke="#333333" stroke-width="0.875"/>
</svg>
