<svg width="14" height="14" viewBox="0 0 14 14" fill="none" xmlns="http://www.w3.org/2000/svg">
<path d="M0 3.33333V1.33333C0 0.59828 0.597973 0 1.33333 0H3.33333C3.70151 0 4 0.298173 4 0.666667C4 1.03516 3.70151 1.33333 3.33333 1.33333H1.33333V3.33333C1.33333 3.70183 1.03484 4 0.666667 4C0.298493 4 0 3.70183 0 3.33333ZM12 0H10C9.63183 0 9.33333 0.298173 9.33333 0.666667C9.33333 1.03516 9.63183 1.33333 10 1.33333H12V3.33333C12 3.70183 12.2985 4 12.6667 4C13.0348 4 13.3333 3.70183 13.3333 3.33333V1.33333C13.3333 0.59828 12.7354 0 12 0ZM12.6667 9.33333C12.2985 9.33333 12 9.63151 12 10V12H10C9.63183 12 9.33333 12.2982 9.33333 12.6667C9.33333 13.0352 9.63183 13.3333 10 13.3333H12C12.7354 13.3333 13.3333 12.7351 13.3333 12V10C13.3333 9.63151 13.0348 9.33333 12.6667 9.33333ZM3.33333 12H1.33333V10C1.33333 9.63151 1.03484 9.33333 0.666667 9.33333C0.298493 9.33333 0 9.63151 0 10V12C0 12.7351 0.597973 13.3333 1.33333 13.3333H3.33333C3.70151 13.3333 4 13.0352 4 12.6667C4 12.2982 3.70151 12 3.33333 12ZM9.33333 10.6667H4C3.26464 10.6667 2.66667 10.0684 2.66667 9.33333V4C2.66667 3.26495 3.26464 2.66667 4 2.66667H9.33333C10.0687 2.66667 10.6667 3.26495 10.6667 4V9.33333C10.6667 10.0684 10.0687 10.6667 9.33333 10.6667ZM4 9.33333H9.33427L9.33328 4H3.99994L4 9.33333Z" fill="black"/>
</svg>
