<svg width="15" height="15" viewBox="0 0 15 15" fill="none" xmlns="http://www.w3.org/2000/svg">
<g clip-path="url(#clip0_675_274)">
<path d="M7.12012 1.26196C6.67607 1.76156 6.33757 2.35691 6.13867 3.01294C4.21372 3.5962 2.8125 5.38484 2.8125 7.50024C2.8127 10.0889 4.91129 12.1877 7.5 12.1877C9.61545 12.1877 11.4021 10.7856 11.9854 8.8606C12.6421 8.6617 13.2373 8.3227 13.7373 7.87817C13.5417 11.1538 10.8247 13.7502 7.5 13.7502C4.04834 13.7502 1.2502 10.9519 1.25 7.50024C1.25 4.17604 3.84525 1.45833 7.12012 1.26196ZM10.625 2.81274C11.4879 2.81274 12.1875 3.5123 12.1875 4.37524C12.1874 4.80617 12.0117 5.19517 11.7295 5.47778C11.2674 4.51299 10.4855 3.73047 9.52051 3.2688C9.8032 2.98651 10.1939 2.81274 10.625 2.81274Z" fill="black"/>
<circle cx="10.625" cy="4.375" r="3.125" fill="black"/>
</g>
<defs>
<clipPath id="clip0_675_274">
<rect width="15" height="15" fill="white"/>
</clipPath>
</defs>
</svg>
