<svg width="16" height="16" viewBox="0 0 16 16" fill="none" xmlns="http://www.w3.org/2000/svg">
<path d="M8.00016 2.66675L3.3335 4.66675L8.00016 6.66675L12.6668 4.66675L8.00016 2.66675Z" stroke="#333333" stroke-width="1.33333" stroke-linejoin="round"/>
<path d="M12.9292 7.38745C13.1741 7.49252 13.3334 7.73328 13.3335 7.99976C13.3335 8.26628 13.1741 8.50691 12.9292 8.61206L8.26318 10.6121C8.09558 10.6839 7.90543 10.6838 7.73779 10.6121L3.0708 8.61206C2.82581 8.50695 2.6665 8.26636 2.6665 7.99976C2.66663 7.73328 2.82591 7.49252 3.0708 7.38745L4.68311 6.69604L6.37451 7.42065L5.0249 7.99976L7.99951 9.27417L10.9751 7.99976L9.62451 7.42065L11.3159 6.69604L12.9292 7.38745Z" fill="#333333"/>
<path d="M12.9292 10.7207C13.1741 10.8258 13.3334 11.0665 13.3335 11.333C13.3335 11.5995 13.1741 11.8402 12.9292 11.9453L8.26318 13.9453C8.09558 14.0171 7.90542 14.0171 7.73779 13.9453L3.0708 11.9453C2.82581 11.8402 2.6665 11.5996 2.6665 11.333C2.66661 11.0665 2.82589 10.8258 3.0708 10.7207L4.68311 10.0293L6.37451 10.7539L5.0249 11.333L7.99951 12.6074L10.9751 11.333L9.62451 10.7539L11.3159 10.0293L12.9292 10.7207Z" fill="#333333"/>
</svg>
